<?xml version="1.0" standalone="no"?>
<!DOCTYPE svg PUBLIC "-//W3C//DTD SVG 20010904//EN"
 "http://www.w3.org/TR/2001/REC-SVG-20010904/DTD/svg10.dtd">
<svg version="1.0" xmlns="http://www.w3.org/2000/svg"
 width="1820.000000pt" height="1214.000000pt" viewBox="0 0 1820.000000 1214.000000"
 preserveAspectRatio="xMidYMid meet">

<g transform="translate(0.000000,1214.000000) scale(0.100000,-0.100000)"
fill="#000000" stroke="none">
<path d="M7305 9460 c-147 -24 -299 -76 -415 -144 -60 -36 -63 -36 -138 -30
-247 20 -306 -116 -253 -591 12 -104 21 -227 21 -273 0 -75 2 -83 18 -78 9 2
33 8 52 11 54 11 130 53 139 78 11 29 -1 104 -33 196 -35 100 -34 125 8 167
40 40 72 43 127 12 36 -20 39 -26 60 -112 16 -68 24 -138 29 -276 7 -217 20
-258 91 -309 84 -61 241 -88 325 -56 50 19 104 82 104 121 0 30 -35 54 -80 54
-87 0 -143 37 -120 79 19 36 69 44 135 21 97 -33 145 -24 145 27 0 34 -26 41
-186 52 -158 11 -225 29 -271 73 -36 35 -52 74 -89 218 -53 214 -7 341 140
381 60 16 137 6 264 -35 198 -64 343 -77 418 -38 79 41 126 120 125 209 -1
102 -73 187 -191 224 -75 24 -322 35 -425 19z"/>
<path d="M12140 8401 c-14 -27 -13 -30 18 -59 20 -19 44 -71 83 -177 52 -145
54 -148 57 -105 2 34 -8 75 -38 156 -29 82 -38 119 -34 142 4 20 2 38 -6 47
-18 22 -67 19 -80 -4z"/>
<path d="M12790 8085 c-7 -8 -10 -29 -7 -47 3 -22 -7 -66 -29 -130 -23 -66
-34 -114 -33 -150 1 -52 1 -51 50 92 37 109 55 150 74 163 27 20 33 55 13 75
-17 17 -53 15 -68 -3z"/>
<path d="M7324 7752 l-121 -3 -43 -40 c-71 -68 -117 -83 -250 -83 -100 0 -125
3 -190 27 -41 15 -96 41 -123 57 l-48 30 -192 -11 c-183 -9 -195 -11 -254 -40
-61 -29 -106 -77 -127 -134 -4 -11 -34 -148 -66 -305 -32 -157 -70 -341 -85
-410 -30 -144 -117 -566 -203 -981 l-59 -287 361 -7 c199 -3 559 -5 800 -3
l439 3 19 55 c22 63 112 362 122 403 l6 27 -260 0 -260 0 0 55 0 54 76 3 75 3
-258 226 c-142 124 -331 290 -420 369 l-163 144 0 56 c0 156 199 339 379 348
l66 3 60 -74 c33 -40 177 -212 320 -382 143 -169 267 -316 275 -326 12 -15 35
-20 121 -25 l105 -7 58 234 c31 129 62 254 67 279 36 163 159 283 305 299 l56
6 -112 160 c-127 182 -157 217 -216 246 -57 27 -117 35 -260 31z"/>
<path d="M12096 6788 c18 -79 55 -235 82 -348 28 -113 53 -222 57 -243 l7 -37
246 2 245 3 102 383 102 382 -437 0 -437 0 33 -142z"/>
<path d="M10275 1830 c-75 -78 -224 -78 -312 2 -20 19 -21 19 -26 1 -3 -10 -9
-84 -13 -165 l-7 -148 522 0 521 0 0 35 c0 71 -108 150 -285 209 -68 23 -346
96 -365 96 -3 0 -19 -13 -35 -30z"/>
<path d="M8421 1723 c-7 -71 -15 -145 -18 -165 l-6 -38 518 0 518 0 -6 36 c-3
20 -18 51 -32 70 -50 66 -276 155 -532 209 l-82 18 -40 -36 c-52 -47 -108 -62
-170 -47 -46 11 -121 55 -121 71 0 5 -4 9 -8 9 -5 0 -14 -57 -21 -127z"/>
</g>
</svg>
